PathFileType  4	(X/Y/Z) C:\Users\antoi\Documents\MyRepositories\mobilecap\ResultsAnalysis
DataRate	CameraRate	NumFrames	NumMarkers	Units	OrigDataRate	OrigDataStartFrame	OrigNumFrames
100.0	100.0	4	51	mm	100.0	164	261
Frame#	Time	r_knee			r_shank_antsup			r_ankle			r_calc			r_5meta			r_toe			L_knee			L_shank_antsup			L_ankle			L_calc			L_5meta			L_toe			r_sh2			r_sh3			r_sh4			L_sh2			L_sh3			r_thigh1			r_thigh2			r_thigh3			r_thigh4			r_thigh5			L_thigh1			L_thigh2			L_thigh3			L_thigh4			r.ASIS			r.PSIS			L.ASIS			L.PSIS			C7			R_Shoulder			L_Shoulder			R_Sternum			L_Sternum			R_humerus			R_elbow_med			R_elbow_lat			R_forearm			R_wrist_radius			R_wrist_ulna			L_humerus			L_elbow_med			L_elbow_lat			L_forearm			L_wrist_radius			L_wrist_ulna			R_HJC			L_HJC			R_HJC_reg			L_HJC_reg			
		X1	Y1	Z1	X2	Y2	Z2	X3	Y3	Z3	X4	Y4	Z4	X5	Y5	Z5	X6	Y6	Z6	X7	Y7	Z7	X8	Y8	Z8	X9	Y9	Z9	X10	Y10	Z10	X11	Y11	Z11	X12	Y12	Z12	X13	Y13	Z13	X14	Y14	Z14	X15	Y15	Z15	X16	Y16	Z16	X17	Y17	Z17	X18	Y18	Z18	X19	Y19	Z19	X20	Y20	Z20	X21	Y21	Z21	X22	Y22	Z22	X23	Y23	Z23	X24	Y24	Z24	X25	Y25	Z25	X26	Y26	Z26	X27	Y27	Z27	X28	Y28	Z28	X29	Y29	Z29	X30	Y30	Z30	X31	Y31	Z31	X32	Y32	Z32	X33	Y33	Z33	X34	Y34	Z34	X35	Y35	Z35	X36	Y36	Z36	X37	Y37	Z37	X38	Y38	Z38	X39	Y39	Z39	X40	Y40	Z40	X41	Y41	Z41	X42	Y42	Z42	X43	Y43	Z43	X44	Y44	Z44	X45	Y45	Z45	X46	Y46	Z46	X47	Y47	Z47	X48	Y48	Z48	X49	Y49	Z49	X50	Y50	Z50	X51	Y51	Z51	

164	1.63000000	42.62530	414.80053	-393.63913	37.10532	315.12142	-410.85234	-256.15524	147.50813	-457.35045	-353.62061	118.51333	-519.49121	-187.80954	54.46525	-396.26186	-112.72254	67.19296	-446.39545	61.68451	461.63864	-779.49341	39.65155	389.58982	-794.13984	-193.28498	151.52513	-746.52477	-293.38512	118.76416	-688.16791	-116.78069	58.85140	-788.90844	-48.77210	70.28149	-729.53264	-53.91100	246.78975	-399.78132	0.98079	369.33207	-374.08430	-101.91974	311.03786	-374.89251	-30.66241	445.26478	-788.31708	-96.29289	341.36642	-779.07270	-193.28744	619.66879	-396.22474	-93.32465	582.64253	-400.84529	-123.72191	480.59808	-385.63050	-232.87145	516.20564	-396.29910	-90.43689	521.98442	-367.15866	-156.17562	645.21142	-768.37424	-22.85334	600.87417	-763.71663	-188.84363	544.73940	-798.40936	-59.84282	498.34241	-796.74841	-250.61319	710.45197	-458.36918	-429.69101	726.56506	-529.32755	-247.24299	714.02300	-701.82198	-432.60804	727.44454	-636.10898	-61.08276	1175.12371	-551.48090	-33.57909	1076.76237	-400.69966	-25.79436	1102.26382	-716.27800	3.20865	1032.02675	-529.69669	2.46107	1032.54611	-583.08821	-38.47941	928.25194	-343.23909	-110.57000	723.22485	-385.57465	-89.70833	743.83242	-299.32362	67.83064	671.77173	-318.78100	151.80900	658.31930	-347.02461	134.21429	621.29990	-325.00149	-65.62738	1008.22586	-814.53473	-170.71426	779.03995	-822.08359	-132.32720	810.36727	-894.61529	-56.53269	784.75041	-886.43191	91.42797	722.02040	-829.46259	82.33307	688.25838	-852.14075	-330.07454	595.00906	-478.69176	-331.94748	604.10807	-685.44379	-307.42142	632.57337	-491.46222	-311.80993	633.89695	-652.10822	
165	1.64000000	41.62398	415.24439	-394.13961	36.38010	315.39846	-411.13902	-256.68378	147.15821	-456.81884	-354.00867	117.84265	-519.03512	-187.92289	54.26027	-396.09299	-112.93063	67.20376	-446.24690	61.14057	462.80466	-777.59039	39.38750	391.22107	-792.90752	-192.97235	152.12102	-746.09109	-293.01886	119.44379	-687.83164	-116.67223	59.15713	-788.66126	-48.53781	70.42190	-729.32371	-54.32411	246.78550	-399.77625	0.23670	369.41082	-374.22771	-102.31112	311.68347	-375.49120	-30.81635	446.87695	-785.71104	-96.51471	342.97365	-777.52605	-192.38271	622.68093	-395.18155	-92.75489	584.15512	-400.36171	-124.28710	482.67461	-385.97060	-232.82731	519.78205	-396.55943	-90.49273	523.56444	-367.07295	-155.20320	648.28614	-768.04275	-22.28607	602.78612	-763.20584	-188.76572	547.91512	-797.31520	-60.21897	500.26257	-794.94709	-248.40455	715.05933	-457.95133	-427.46033	732.85843	-528.51119	-244.96433	718.83955	-701.15019	-430.38657	733.83068	-635.29739	-56.13161	1178.54995	-551.24330	-28.72458	1078.99792	-401.42220	-21.93856	1105.41223	-716.42261	7.74751	1035.03545	-530.23721	6.87411	1035.73856	-583.58805	-35.53104	929.62271	-345.64688	-110.41651	726.35640	-391.29316	-89.12387	745.50719	-305.00249	69.09392	676.42217	-327.36147	152.92321	664.86716	-356.90834	136.27324	627.19523	-335.24295	-63.27713	1012.00255	-815.15811	-168.52335	782.63538	-822.43767	-130.64332	814.17074	-895.42176	-55.07402	787.67622	-888.11231	92.64328	722.48865	-832.71358	82.69963	688.77611	-855.16827	-328.88167	600.34963	-478.14395	-330.79776	609.67178	-684.88566	-305.91730	637.84598	-491.03800	-310.31520	639.30748	-651.51780	
166	1.65000000	40.00450	415.51095	-394.35179	35.03248	315.50427	-411.05212	-257.32003	146.59840	-456.30831	-354.53086	116.75615	-518.82423	-188.14012	54.04229	-396.09189	-113.27781	67.21412	-446.25004	60.21127	463.36660	-775.92392	38.44930	392.21124	-791.85266	-193.12812	152.13511	-746.02051	-293.07333	119.25658	-687.98616	-116.66660	59.17731	-788.71687	-48.55432	70.49859	-729.35389	-55.35824	246.44395	-399.99521	-1.28934	369.25879	-373.97566	-103.54429	311.61906	-375.90378	-31.74894	447.75980	-783.65880	-97.40115	343.64532	-776.23864	-190.76847	626.48103	-394.55774	-92.24482	586.15529	-399.32914	-125.10468	485.36466	-385.92206	-232.90538	524.30765	-396.48172	-90.62767	525.57784	-366.58161	-153.71282	651.75613	-767.77689	-21.34006	604.77361	-762.71189	-188.70217	551.63471	-796.07397	-60.91776	502.11121	-793.04521	-246.06544	720.81585	-457.22209	-425.06701	740.28283	-527.61049	-242.38159	724.49221	-700.03374	-427.94976	741.34453	-634.58678	-51.73572	1183.68125	-551.18358	-24.45414	1083.36641	-401.92231	-18.48629	1110.60933	-716.64115	11.88068	1039.99834	-530.66979	10.90920	1040.75922	-584.06588	-33.66360	933.14270	-347.65727	-112.28958	732.11996	-396.81976	-90.42594	749.47497	-310.46801	67.87719	682.47553	-335.64524	151.62115	672.44452	-366.45078	135.57765	634.19199	-345.16810	-61.41206	1017.80755	-815.86078	-167.53975	788.56165	-822.72791	-130.04875	820.21237	-896.05341	-54.75279	792.55531	-889.81455	92.36115	724.08281	-836.44887	81.16148	690.71344	-858.54903	-327.71296	606.86876	-477.25859	-329.39281	616.18391	-684.00256	-304.24345	644.15862	-490.30757	-308.56157	645.74910	-650.53416	
167	1.66000000	37.88383	415.93568	-394.49619	33.30378	315.70377	-410.75003	-257.94167	145.99374	-456.02166	-355.10151	115.58505	-518.80631	-188.38086	53.80971	-396.09421	-113.64388	67.32899	-446.32867	58.98510	463.75962	-774.58501	37.08370	392.67409	-790.84410	-193.63812	151.70349	-746.14023	-293.46857	118.39305	-688.32873	-116.75052	58.97549	-788.99096	-48.74214	70.53202	-729.49579	-56.83269	246.17803	-400.33543	-3.18272	369.22368	-373.50000	-105.32750	310.90518	-375.72444	-33.31206	447.98750	-782.31843	-98.71916	343.43054	-775.27792	-188.68744	631.33773	-393.97682	-91.00682	589.29655	-398.38487	-125.95818	489.00081	-385.52725	-233.10620	529.88903	-396.07505	-90.75535	528.33071	-365.62678	-151.66224	655.90466	-767.19249	-20.02305	607.06600	-762.25344	-188.55230	556.23514	-794.74238	-61.75792	504.44248	-791.53347	-243.63308	727.77799	-456.22469	-422.50755	748.77074	-526.60430	-239.79019	731.32327	-699.30898	-425.29131	749.88450	-633.88454	-47.86266	1190.57714	-551.22901	-20.83238	1089.89283	-401.97451	-15.27510	1117.67596	-717.02326	15.60843	1046.79677	-530.94627	14.59722	1047.58700	-584.41259	-32.95844	938.80497	-349.38450	-115.95829	740.34622	-401.73419	-93.30629	755.78491	-315.40804	64.60270	689.89213	-343.36068	148.17358	680.99279	-375.42010	132.51209	642.30013	-354.54390	-59.79659	1025.35385	-816.41162	-167.57534	796.87561	-823.17080	-130.39867	828.55346	-896.65274	-55.56690	799.37985	-891.42183	90.59061	726.97004	-840.69568	77.89563	694.25783	-862.64965	-326.28817	614.53878	-476.36291	-327.82374	623.81086	-683.11021	-302.49329	651.46003	-489.42986	-306.65557	653.12553	-649.83990	
